<svg id="Layer_3" data-name="Layer 3" xmlns="http://www.w3.org/2000/svg" viewBox="0 0 475.12 135.96">
  <path d="M18.54,62.36l5.69,3.92-11.07,16.07,11.38-3.79,7.05,4.86-13.94,3.93,1.34,15.01-7.2-4.96-.54-12.28-5.56,8.07-5.69-3.92,18.54-26.91Z" fill="#0E0676"/>
  <path d="M29.08,95.13c3.21-6.11,10.04-8.25,16.4-4.91,6.36,3.33,8.37,10.1,5.16,16.22l-.9,1.71-15.2-7.97c-.75,2.62.49,4.62,2.69,5.77,1.75.92,3.25,1.24,4.6.54l6.32,3.31c-3.48,3.47-8.77,4.24-13.78,1.61-6.36-3.33-8.49-10.17-5.28-16.28ZM45.49,100.98c.4-2.44-.76-4.19-2.88-5.31-2.12-1.11-4.24-1.03-5.92.69l8.8,4.62Z" fill="#0E0676"/>
  <path d="M58.01,107.86c2.46-6.65,7.5-8.32,13.19-6.21,5.7,2.11,8.41,6.6,5.96,13.35l-.05.13-6.48-2.4.06-.17c1.05-2.85.08-4.19-1.73-4.86-1.81-.67-3.43-.29-4.48,2.56l-4.49,12.13-6.47-2.4,4.49-12.13Z" fill="#0E0676"/>
  <path d="M82.22,118.5c1.44-7.18,7.38-11.01,14.46-9.58,6.99,1.41,10.93,7.03,9.46,14.34l-2.2,10.92-6.23-1.25.74-3.7c-1.73,2.52-4.56,3.54-7.77,2.9-4.96-1-10.04-5.87-8.48-13.63ZM99.42,121.67c.64-3.2-.99-5.83-4.06-6.45-3.07-.62-5.59,1.18-6.23,4.38-.64,3.2.99,5.83,4.06,6.45,3.07.62,5.59-1.18,6.23-4.38Z" fill="#0E0676"/>
  <path d="M115.46,123.18c-.37-7.31,3.69-10.74,9.21-11.02,3.22-.16,5.99.94,7.81,3.24,1.58-2.48,4.18-3.85,7.45-4.02,5.52-.28,9.91,2.72,10.28,10.03l.65,12.78-6.89.35-.65-12.78c-.15-3.03-1.68-4.02-3.75-3.91-2.02.1-3.44,1.24-3.29,4.27l.65,12.78-6.9.35-.65-12.78c-.15-3.03-1.68-4.02-3.7-3.91-2.07.11-3.49,1.24-3.33,4.27l.65,12.78-6.9.35-.65-12.78Z" fill="#0E0676"/>
  <path d="M153.47,102.54c-.81-2.4.37-4.79,2.77-5.6,2.4-.81,4.79.37,5.6,2.77.81,2.4-.37,4.79-2.77,5.6-2.4.81-4.79-.37-5.6-2.77ZM156.48,108.38l6.54-2.22,7.31,21.54-6.54,2.22-7.31-21.54Z" fill="#0E0676"/>
  <path d="M165.89,94.59l6.04-3.34,9.45,17.08,1.69-11.88,7.49-4.15-2.7,14.23,14.03,5.49-7.65,4.24-11.23-4.99,4.75,8.58-6.04,3.34-15.83-28.59Z" fill="#0E0676"/>
  <path d="M213.09,62.92l5.42-4.28,12.11,15.31-.27-11.99,6.71-5.31-.35,14.48,14.74,3.13-6.86,5.43-11.89-3.09,6.08,7.69-5.42,4.28-20.27-25.63Z" fill="#0E0676"/>
  <path d="M247.02,63.15c-4.06-5.59-2.93-12.66,2.88-16.88,5.81-4.22,12.88-3.09,16.94,2.49s2.93,12.66-2.88,16.88c-5.81,4.22-12.88,3.09-16.94-2.49ZM261.18,52.88c-1.92-2.65-4.96-3.23-7.49-1.39-2.53,1.84-2.92,4.91-1,7.55,1.92,2.64,4.96,3.23,7.49,1.39,2.53-1.84,2.92-4.91,1-7.55Z" fill="#0E0676"/>
  <path d="M262.14,26.68l5.91-3.57,16.9,27.97-5.91,3.57-16.9-27.97Z" fill="#0E0676"/>
  <path d="M277.56,17.86l6.19-3.06,14.49,29.3-6.19,3.06-14.49-29.3Z" fill="#0E0676"/>
  <path d="M300.05,30.36c-2.06-6.59,1.25-12.93,8.1-15.08,6.85-2.15,13.07,1.21,15.13,7.8l.58,1.84-16.38,5.13c1.33,2.38,3.62,2.92,5.99,2.18,1.89-.59,3.17-1.43,3.63-2.88l6.81-2.13c0,4.92-3.19,9.2-8.6,10.89-6.85,2.15-13.2-1.17-15.26-7.76ZM315.79,22.87c-1.45-2.01-3.51-2.42-5.79-1.71-2.28.72-3.72,2.28-3.69,4.68l9.49-2.97Z" fill="#0E0676"/>
  <path d="M329.89.44l6.89-.44,1.26,19.48,6.59-10.02,8.54-.55-8.52,11.71,10.35,10.96-8.73.56-8.03-9.31.63,9.78-6.89.45-2.1-32.61Z" fill="#0E0676"/>
  <path d="M360.17,22.84l1.91-21.74,6.88.6-.7,8.02,10.73.94-.54,6.19-10.73-.94-.66,7.52c-.21,2.38.83,3.22,2.34,3.35,1.51.13,2.68-.5,2.89-2.89l.06-.69,6.88.6-.06.69c-.57,6.47-4.69,9.2-10.33,8.71-5.64-.5-9.22-3.91-8.65-10.37Z" fill="#0E0676"/>
  <path d="M388.87,12.5l6.75,1.44-4.76,22.23-6.75-1.44,4.76-22.23ZM389.29,5.95c.53-2.48,2.77-3.93,5.24-3.4,2.47.53,3.93,2.77,3.4,5.25-.53,2.47-2.77,3.92-5.25,3.39-2.47-.53-3.92-2.77-3.39-5.24Z" fill="#0E0676"/>
  <path d="M403.91,15.69l6.98,2.5-.72,16.9,10.17-13.52,6.8,2.44-15.33,18.66-7.89-2.82V15.69Z" fill="#0E0676"/>
  <path d="M427.23,36.52c3.35-6.04,10.23-8.01,16.51-4.52,6.28,3.48,8.13,10.3,4.78,16.34l-.94,1.69-15.01-8.33c-.81,2.6.38,4.63,2.55,5.84,1.73.96,3.22,1.31,4.59.65l6.24,3.46c-3.57,3.39-8.87,4.03-13.82,1.28-6.28-3.48-8.25-10.37-4.9-16.41ZM443.5,42.76c.45-2.43-.66-4.21-2.76-5.37-2.09-1.16-4.22-1.13-5.94.55l8.69,4.82Z" fill="#0E0676"/>
  <path d="M452.72,54.27l13.41-17.21,5.45,4.24-4.95,6.35,8.49,6.62-3.82,4.9-8.49-6.62-4.64,5.95c-1.47,1.89-1.05,3.15.15,4.08,1.2.93,2.52,1.03,3.99-.86l.42-.54,5.45,4.24-.42.54c-3.99,5.12-8.93,5.17-13.4,1.7-4.46-3.48-5.62-8.29-1.63-13.41Z" fill="#0E0676"/>
</svg>