<svg width="925" height="245" viewBox="0 0 925 245" fill="none" xmlns="http://www.w3.org/2000/svg">
<path d="M48.6768 102.687L26.252 134.58L24.5352 137.023L27.377 136.108L50.2812 128.735L62.4697 137.315L35.9121 144.505L35.1113 144.722L35.1768 145.55L37.4541 174.208L24.9639 165.408L24.1191 140.741L24.0176 137.759L22.3018 140.2L11.3262 155.816L1.39258 148.821L38.7607 95.6927L48.6768 102.687Z" stroke="white" stroke-width="2"/>
<path d="M60.2744 162.217C66.5844 150.422 79.672 146.274 92.002 152.528L92.5879 152.834C98.8512 156.191 102.904 161.201 104.608 166.831C106.259 172.286 105.726 178.392 102.76 184.247L102.465 184.814L101.07 187.422L70.9531 171.299L69.8711 170.72L69.5225 171.898C68.6658 174.795 68.9017 177.426 70.0137 179.671C71.0486 181.761 72.8047 183.443 74.9824 184.697L75.4229 184.943H75.4248C78.8923 186.795 82.1867 187.678 85.2666 186.361L96.4629 192.365C89.6265 198.284 79.7999 199.356 70.3926 194.317H70.3916C58.0951 187.725 53.986 174.573 59.9805 162.745H59.9922L60.2744 162.217ZM87.5742 162.228C85.2937 161.007 82.9351 160.392 80.6367 160.591C78.3221 160.791 76.1512 161.81 74.2637 163.71L73.3174 164.662L74.501 165.296L92.4473 174.908L93.6699 175.563L93.9053 174.197C94.3712 171.497 93.9763 169.108 92.832 167.07C91.695 165.046 89.8617 163.446 87.5752 162.228H87.5742Z" stroke="white" stroke-width="2"/>
<path d="M129.962 176.079C134.316 174.177 139.533 174.334 145.215 176.411C150.899 178.49 154.968 181.71 157.058 185.969C159.071 190.074 159.324 195.309 157.165 201.74L145.759 197.566C146.681 194.794 146.725 192.544 145.932 190.748C145.078 188.817 143.361 187.647 141.371 186.915C139.38 186.183 137.318 185.967 135.42 186.892C133.652 187.754 132.229 189.507 131.138 192.229L130.924 192.786L130.923 192.788L122.162 216.733L110.767 212.563L119.52 188.637L119.527 188.639C121.957 182 125.618 177.977 129.962 176.079Z" stroke="white" stroke-width="2"/>
<path d="M179.326 194.124C184.077 190.851 190.197 189.497 196.994 190.573L197.654 190.684H197.655C204.622 191.929 210.043 195.286 213.407 200.083C216.665 204.727 218.055 210.807 216.953 217.821L216.839 218.502L213.003 239.993L202.18 238.057L203.367 231.437L201.547 230.712C198.463 235.423 193.362 237.545 187.362 236.653L186.779 236.557H186.778C177.03 234.813 166.885 225.513 169.64 210.166L169.698 209.838L169.681 209.803C171.009 202.809 174.498 197.449 179.326 194.124ZM194.945 201.581C191.788 201.166 188.893 201.895 186.6 203.587C184.159 205.389 182.477 208.224 181.848 211.739C181.218 215.253 181.811 218.496 183.475 221.033C185.038 223.416 187.501 225.104 190.606 225.814L191.236 225.943L191.239 225.944C194.643 226.549 197.774 225.841 200.22 224.036C202.508 222.347 204.128 219.749 204.841 216.535L204.972 215.884C205.602 212.379 205.008 209.137 203.345 206.598C201.782 204.213 199.32 202.519 196.213 201.809L195.583 201.68L195.58 201.679L194.945 201.581Z" stroke="white" stroke-width="2"/>
<path d="M286.194 192.198C291.621 191.578 296.486 192.621 300.186 195.513C303.764 198.309 306.387 202.94 307.302 209.83L307.386 210.503V210.504L310.259 235.558L298.209 236.935L295.336 211.881C294.968 208.645 293.912 206.359 292.21 204.97C290.609 203.663 288.601 203.284 286.491 203.455L286.067 203.496L286.064 203.497C283.847 203.757 281.832 204.578 280.497 206.319C279.25 207.946 278.721 210.214 278.972 213.159L279.032 213.757L281.905 238.809L269.855 240.186L266.982 215.132C266.615 211.896 265.559 209.611 263.87 208.221C262.281 206.912 260.292 206.526 258.214 206.687L257.797 206.726L257.794 206.727C255.528 206.987 253.492 207.811 252.146 209.559C250.887 211.191 250.358 213.463 250.6 216.407L250.658 217.005V217.006L253.531 242.059L241.482 243.437L238.608 218.383H238.605C237.781 211.141 239.293 205.828 242.236 202.181C245.095 198.638 249.409 196.535 254.609 195.834L255.115 195.77H255.116C261.405 195.039 266.878 196.869 270.638 201.063L271.579 202.113L272.259 200.879C274.901 196.083 279.508 193.119 285.601 192.273L286.194 192.198Z" stroke="white" stroke-width="2"/>
<path d="M348.51 219.925L337.234 224.422L320.749 182.994L332.025 178.497L348.51 219.925ZM318.138 159.986C322.302 158.319 326.607 160.065 328.419 164.085L328.587 164.482L328.588 164.485C330.254 168.654 328.508 172.964 324.491 174.777L324.096 174.944L324.092 174.945C319.928 176.612 315.622 174.866 313.811 170.845L313.644 170.448L313.642 170.445L313.491 170.041C312.091 166 313.852 161.908 317.739 160.154L318.135 159.987L318.138 159.986Z" stroke="white" stroke-width="2"/>
<path d="M369.309 181.138L370.768 183.745L371.172 180.785L374.433 156.916L387.438 149.632L382.432 176.715L382.281 177.531L383.056 177.83L409.865 188.18L396.534 195.647L373.932 185.734L371.203 184.537L372.657 187.138L381.974 203.805L371.387 209.73L339.679 153.038L350.266 147.113L369.309 181.138Z" stroke="white" stroke-width="2"/>
<path d="M434.136 144.001L434.049 144.826L434.844 145.064L462.362 153.304L449.648 161.781L426.356 153.657L423.544 152.676L425.194 155.155L435.769 171.04L425.663 177.776L389.684 123.728L399.781 116.996L421.385 149.437L423.04 151.922L423.216 148.941L424.63 124.894L437.021 116.622L434.136 144.001Z" stroke="white" stroke-width="2"/>
<path d="M464.896 96.3168C476.719 88.506 490.45 91.3491 497.918 102.675C505.386 114.002 502.606 127.755 490.783 135.566C478.96 143.377 465.228 140.533 457.76 129.207C450.291 117.88 453.072 104.128 464.896 96.3168ZM480.073 103.85C477.297 103.203 474.349 103.683 471.614 105.323L471.072 105.664C468.186 107.569 466.408 110.242 465.883 113.238C465.359 116.226 466.097 119.442 468.061 122.421C470.025 125.403 472.691 127.339 475.646 128.025C478.606 128.712 481.761 128.121 484.646 126.218C487.532 124.314 489.31 121.641 489.835 118.645C490.359 115.656 489.621 112.441 487.657 109.461C485.693 106.481 483.028 104.539 480.073 103.85Z" stroke="white" stroke-width="2"/>
<path d="M534.201 107.104L523.717 113.237L490.938 57.1494L501.423 51.0156L534.201 107.104Z" stroke="white" stroke-width="2"/>
<path d="M561.7 92.5477L550.855 97.9921L521.733 39.9178L532.579 34.4735L561.7 92.5477Z" stroke="white" stroke-width="2"/>
<path d="M582.319 34.376C589.029 32.0378 595.459 32.4465 600.755 35.003C605.886 37.4802 610.016 42.006 612.311 48.1524L612.527 48.752V48.753L613.501 51.5411L581.239 62.7911L580.081 63.1944L580.711 64.2481C582.262 66.8423 584.358 68.4501 586.762 69.1544C588.999 69.8098 591.423 69.6606 593.812 68.9112L594.289 68.753L594.292 68.752C598.016 67.4448 600.881 65.6261 602.016 62.4688L614.017 58.2784C613.745 67.1665 608.063 75.0353 598.295 78.628L597.803 78.8047C584.643 83.3915 572.194 77.5277 567.549 65.1251L567.334 64.5294C562.869 51.6996 568.951 39.0561 582.32 34.377L582.319 34.376ZM599.132 48.1436L598.925 47.8741C597.256 45.7046 595.229 44.3783 592.955 43.8409C590.695 43.307 588.276 43.5716 585.83 44.4297C583.381 45.2891 581.33 46.6093 579.92 48.4376C578.5 50.2785 577.783 52.5674 577.903 55.251L577.963 56.5928L579.231 56.1505L598.461 49.4483L599.132 49.2139V48.1436Z" stroke="white" stroke-width="2"/>
<path d="M642.056 39.8496L642.4 42.8164L643.912 40.2402L656.091 19.4785L670.887 17.7549L655.866 40.834L655.414 41.5293L656.014 42.1025L676.773 61.9629L661.595 63.7275L644.555 45.8867L642.496 43.7314L642.838 46.6914L645.028 65.665L632.979 67.0615L625.487 2.50586L637.56 1.10742L642.056 39.8496Z" stroke="white" stroke-width="2"/>
<path d="M705.104 2.68976L703.975 18.1487L703.901 19.1458L704.898 19.2191L725.898 20.7513L725.121 31.4593L704.122 29.9271L703.124 29.8538L703.052 30.8519L701.929 46.2825C701.738 48.8632 702.192 50.806 703.304 52.1409C704.424 53.4854 706.047 54.0162 707.748 54.137C709.446 54.2576 711.13 53.9688 712.432 52.803C713.725 51.6447 714.452 49.7905 714.632 47.2103L714.66 46.804L726.762 47.6819L726.733 48.0901C726.267 54.521 724.022 58.9812 720.632 61.7484C717.231 64.5242 712.53 65.7147 706.929 65.306C701.328 64.8972 696.851 63.0352 693.889 59.7923C690.938 56.5624 689.363 51.8261 689.825 45.4046L689.827 45.4056L693.002 1.81183L705.104 2.68976Z" stroke="white" stroke-width="2"/>
<path d="M760.021 26.7743L751.385 70.5253L739.472 68.1649L748.107 24.4139L760.021 26.7743ZM748.943 10.0057C749.811 5.59551 753.614 2.9432 757.972 3.59656L758.396 3.6698H758.396C762.945 4.56593 765.623 8.57355 764.727 13.1317C763.831 17.6853 759.826 20.3646 755.273 19.4677C750.725 18.5714 748.047 14.5639 748.943 10.0057Z" stroke="white" stroke-width="2"/>
<path d="M791.538 34.9017L790.577 68.8236L790.486 72.0472L792.385 69.4408L812.363 42.0219L824.319 46.1195L794.803 83.1498L779.894 78.0472L779.183 30.6713L791.538 34.9017Z" stroke="white" stroke-width="2"/>
<path d="M827.961 70.9329C834.577 59.6469 847.674 55.9611 859.837 62.5471C866.091 65.9335 870.119 70.9629 871.797 76.5999C873.422 82.0622 872.861 88.164 869.876 94.0013L869.58 94.5657L868.17 97.1751L838.131 80.9163L837.049 80.3313L836.696 81.5091C835.829 84.406 836.054 87.0359 837.155 89.2845C838.18 91.3766 839.925 93.0641 842.092 94.3274L842.531 94.5745L842.533 94.5764C846.006 96.4507 849.279 97.3317 852.373 96.0354L863.552 102.074C856.81 107.857 847.18 108.954 837.951 104.159L837.489 103.914L836.911 103.593C824.905 96.7462 821.139 83.5324 827.505 71.7766L827.961 70.9329ZM854.772 71.9055C852.492 70.6745 850.134 70.0483 847.834 70.2386C845.518 70.4303 843.345 71.4442 841.457 73.345L840.515 74.2932L841.69 74.929L859.597 84.6223L860.243 83.7552L861.037 83.8958C861.514 81.1967 861.13 78.808 859.997 76.7679C858.871 74.7405 857.048 73.1344 854.772 71.9055Z" stroke="white" stroke-width="2"/>
<path d="M916.079 80.3579L906.68 92.6889L906.073 93.4829L906.867 94.0893L923.598 106.868L917.092 115.392L900.361 102.614L899.565 102.006L898.959 102.803L889.595 115.104C888.03 117.157 887.35 119.029 887.55 120.754C887.738 122.382 888.682 123.658 889.91 124.67L890.159 124.87L890.164 124.873C891.516 125.906 893.084 126.584 894.815 126.319C896.535 126.056 898.164 124.9 899.729 122.836L899.729 122.835L899.979 122.508L909.64 129.884L909.389 130.212L909.387 130.215C905.478 135.343 901.16 137.85 896.81 138.311C892.582 138.759 888.148 137.293 883.817 134.095L883.398 133.78L883.397 133.779L882.983 133.457C878.754 130.112 876.168 126.219 875.48 122.021C874.774 117.702 876.048 112.875 879.956 107.748L880.486 107.053L880.466 107.033L906.419 72.9839L916.079 80.3579Z" stroke="white" stroke-width="2"/>
</svg>
