<svg width="482" height="128" viewBox="0 0 482 128" fill="none" xmlns="http://www.w3.org/2000/svg">
<path d="M31.4434 71.3573L18.5889 74.8377L17.7871 75.0545L17.8525 75.8817L18.959 89.7987L13.4785 85.9364L13.0469 73.3221L12.9951 71.8358L14.4121 71.3797L26.1211 67.6112L31.4434 71.3573ZM24.6973 53.6239L13.2881 69.8524L12.9443 70.3407V70.3397L11.2295 72.7811L5.78613 80.5262L1.39258 77.4325L20.3135 50.5311L24.6973 53.6239Z" stroke="black" stroke-width="2"/>
<path d="M31.8311 84.7554C34.9429 78.9384 41.3201 76.8296 47.4307 79.7622L48.0205 80.062C51.182 81.7567 53.2037 84.2707 54.0518 87.0728C54.8471 89.7008 54.6299 92.6467 53.2607 95.5073L52.9707 96.0776V96.0786L52.4697 97.0142L37.1992 88.8394L36.1162 88.2603L35.7686 89.438C35.2912 91.0528 35.4169 92.5484 36.0547 93.8364C36.645 95.0285 37.6363 95.969 38.834 96.6587L39.0762 96.7935H39.0771C40.8484 97.7395 42.6603 98.2801 44.4023 97.6372L49.4033 100.32C46.1535 102.78 41.7206 103.214 37.374 101.075L36.9072 100.834C30.7566 97.5376 28.7034 91.0191 31.6357 85.1187L31.8311 84.7554ZM45.8594 84.1118C44.6111 83.444 43.2892 83.0912 41.9775 83.2046C40.6498 83.3194 39.4152 83.9056 38.3584 84.9692L37.4121 85.9224L38.5957 86.5562L47.9473 91.5649L49.1689 92.2192L49.4053 90.853C49.6646 89.3495 49.4467 87.9911 48.791 86.8237C48.2235 85.8135 47.3612 85.005 46.3174 84.3726L45.8594 84.1118Z" stroke="black" stroke-width="2"/>
<path d="M67.9131 92.1919C70.0372 91.264 72.6221 91.3214 75.5049 92.3755C78.3895 93.4302 80.3917 95.0407 81.4102 97.1167C82.3424 99.0171 82.5203 101.456 81.5908 104.501L76.542 102.655C76.9123 101.333 76.912 100.179 76.4805 99.2026C75.9627 98.0314 74.9336 97.3549 73.832 96.9497C72.7287 96.5438 71.5069 96.3952 70.3555 96.9565C69.2877 97.4771 68.4826 98.5104 67.8887 99.9917L67.7734 100.293L67.7725 100.294L63.3711 112.322L58.333 110.478L62.7295 98.4604L62.7334 98.4614C63.967 95.09 65.7997 93.1151 67.9131 92.1919Z" stroke="black" stroke-width="2"/>
<path d="M93.7168 101.55C96.0038 99.9745 98.9458 99.2796 102.246 99.7294L102.91 99.8339L102.912 99.8349C106.436 100.464 109.142 102.154 110.812 104.535C112.377 106.766 113.09 109.685 112.629 113.088L112.521 113.774L110.605 124.501L105.909 123.661L106.444 120.684L104.623 119.959C103.13 122.239 100.665 123.284 97.7012 122.843L97.4131 122.796H97.4121C92.6278 121.94 87.6453 117.441 88.8086 109.958L88.8691 109.599L88.9277 109.272L88.9219 109.261C89.6146 105.803 91.3509 103.179 93.7168 101.55ZM101.999 104.621C100.108 104.285 98.3407 104.676 96.9512 105.701C95.5668 106.723 94.6345 108.317 94.2881 110.25C93.9417 112.183 94.2624 114.001 95.2061 115.439C96.0942 116.793 97.4875 117.741 99.2158 118.136L99.5664 118.207L99.5693 118.208C101.46 118.544 103.228 118.152 104.617 117.127C105.915 116.169 106.815 114.709 107.208 112.937L107.28 112.579C107.627 110.65 107.305 108.833 106.361 107.393C105.474 106.039 104.081 105.089 102.352 104.693L102.002 104.621H101.999Z" stroke="black" stroke-width="2"/>
<path d="M149.187 100.627C151.924 100.314 154.323 100.846 156.128 102.256C157.814 103.574 159.107 105.757 159.609 109.068L159.699 109.745L161.142 122.325L155.814 122.933L154.372 110.354C154.173 108.598 153.589 107.268 152.57 106.436C151.61 105.652 150.426 105.445 149.247 105.54L149.012 105.564H149.009C147.775 105.708 146.584 106.175 145.783 107.219C144.987 108.257 144.719 109.682 144.924 111.439V111.44L146.367 124.019L141.04 124.627L139.597 112.048C139.397 110.292 138.814 108.963 137.804 108.131C136.85 107.346 135.677 107.134 134.514 107.225L134.281 107.246L134.279 107.247C133.022 107.391 131.819 107.858 131.011 108.906C130.258 109.882 129.976 111.199 130.107 112.807L130.139 113.132V113.133L131.582 125.712L126.255 126.322L124.812 113.743H124.81C124.39 110.061 125.165 107.431 126.599 105.655C127.948 103.983 129.981 102.943 132.485 102.558L132.993 102.49C136.142 102.123 138.831 103.039 140.67 105.091L141.61 106.141L142.29 104.907C143.625 102.483 145.988 100.995 149.188 100.628L149.187 100.627Z" stroke="black" stroke-width="2"/>
<path d="M180.981 114.332L175.995 116.32L167.76 95.623L172.746 93.6348L180.981 114.332ZM165.955 83.8105C167.887 83.0373 169.861 83.838 170.699 85.7021L170.776 85.8857L170.778 85.8887C171.552 87.8233 170.75 89.7987 168.889 90.6377L168.705 90.7158L168.702 90.7168C166.771 91.49 164.797 90.6899 163.958 88.8262L163.88 88.6426L163.879 88.6387L163.809 88.4521C163.158 86.5783 163.967 84.7015 165.769 83.8896L165.952 83.8125L165.955 83.8105Z" stroke="black" stroke-width="2"/>
<path d="M192.023 94.6222L192.318 95.1505L192.314 95.1486L193.769 97.7492L198.39 106.015L193.709 108.636L177.653 79.9298L182.335 77.3097L192.023 94.6222ZM198.81 91.9972L198.658 92.8127L199.433 93.1115L212.453 98.1378L206.603 101.415L195.043 96.3449L193.685 95.7492L193.887 94.2697L195.553 82.0675L201.232 78.8878L198.81 91.9972Z" stroke="black" stroke-width="2"/>
<path d="M219.179 78.1351L220.834 80.6205V80.6195L221.164 81.1156L226.409 88.9935L221.94 91.973L203.723 64.6058L208.187 61.6292L219.179 78.1351ZM225.746 74.9867L225.659 75.8119L226.454 76.0501L239.817 80.0511L234.237 83.7708L222.326 79.6165L220.922 79.1263L221.01 77.639L221.732 65.347L227.142 61.7357L225.746 74.9867Z" stroke="black" stroke-width="2"/>
<path d="M242.516 50.5891C248.461 46.661 255.318 48.091 259.06 53.7658C262.802 59.4419 261.424 66.3141 255.478 70.2424C249.532 74.1706 242.674 72.7398 238.933 67.0647C235.19 61.3886 236.57 54.5173 242.516 50.5891ZM250.27 53.6487C248.692 53.281 247.03 53.5583 245.507 54.4709L245.206 54.6604C243.602 55.7187 242.593 57.2222 242.295 58.924C241.998 60.619 242.421 62.4167 243.501 64.0559C244.582 65.6965 246.069 66.7899 247.745 67.1789C249.427 67.5692 251.204 67.2271 252.807 66.1701C254.411 65.1119 255.42 63.6091 255.719 61.9074C256.016 60.2126 255.593 58.4147 254.513 56.7756C253.432 55.1358 251.946 54.0393 250.27 53.6487Z" stroke="black" stroke-width="2"/>
<path d="M277.711 55.6382L273.074 58.3511L256.477 29.9517L261.113 27.2388L277.711 55.6382Z" stroke="black" stroke-width="2"/>
<path d="M292.053 48.0126L287.257 50.4188L272.511 21.0135L277.307 18.6063L292.053 48.0126Z" stroke="black" stroke-width="2"/>
<path d="M303.598 18.3647C306.984 17.1846 310.203 17.399 312.838 18.6713C315.31 19.8647 317.33 22.0183 318.505 24.9623L318.729 25.562V25.5629L319.077 26.5629L302.719 32.267L301.561 32.6713L302.19 33.725C303.055 35.1707 304.242 36.0917 305.62 36.4955C306.896 36.8693 308.258 36.778 309.572 36.3657L309.834 36.2787L309.837 36.2778C311.74 35.6098 313.355 34.6461 314.069 32.9311L319.432 31.059C319.04 35.1163 316.355 38.6811 311.844 40.4301L311.351 40.6118H311.35C304.836 42.8817 298.715 40.0726 296.305 34.06L296.083 33.4682C293.845 27.039 296.874 20.719 303.599 18.3657L303.598 18.3647ZM312.679 24.9243L312.472 24.6547C311.542 23.4463 310.395 22.6863 309.092 22.3784C307.803 22.0739 306.447 22.2307 305.11 22.6996C303.771 23.1697 302.615 23.9039 301.81 24.9477C300.995 26.0041 300.593 27.3105 300.66 28.812L300.72 30.1537L301.988 29.7114L312.008 26.2192L312.679 25.9848V24.9243Z" stroke="black" stroke-width="2"/>
<path d="M334.092 20.8203L334.162 21.4297L334.157 21.4248L334.499 24.3857L335.586 33.7959L330.258 34.4141L326.465 1.72656L331.804 1.10742L334.092 20.8203ZM341.363 21.0166L340.91 21.7119L341.51 22.2852L351.592 31.9297L344.931 32.7041L336.216 23.5801L335.188 22.5049L335.948 21.2109L342.173 10.5977L348.633 9.8457L341.363 21.0166Z" stroke="black" stroke-width="2"/>
<path d="M366.907 1.84393L366.354 9.42206L366.281 10.4191L367.278 10.4924L377.743 11.256L377.408 15.8801L366.943 15.1174L365.946 15.0441L365.873 16.0412L365.288 24.0822C365.184 25.4904 365.424 26.6476 366.114 27.4767C366.813 28.3154 367.807 28.6197 368.765 28.6877C369.718 28.7554 370.746 28.5991 371.558 27.8723C372.31 27.1984 372.711 26.1827 372.84 24.9006L378.189 25.2892C377.913 28.3982 376.804 30.5037 375.209 31.8058C373.558 33.1532 371.242 33.7599 368.406 33.5529C365.571 33.346 363.368 32.4085 361.93 30.8342C360.502 29.2713 359.703 26.9442 359.937 23.6945L359.938 23.6955L361.557 1.45624L366.907 1.84393Z" stroke="black" stroke-width="2"/>
<path d="M395.475 14.328L391.16 36.1864L385.892 35.1425L390.205 13.2841L395.475 14.328ZM390.734 5.30652C391.137 3.26078 392.88 2.04444 394.9 2.34851L395.097 2.38269H395.098C397.207 2.79824 398.436 4.63366 398.02 6.75085C397.604 8.86303 395.77 10.0908 393.656 9.67468C391.547 9.25913 390.318 7.42369 390.734 5.30652Z" stroke="black" stroke-width="2"/>
<path d="M411.972 18.5253L411.48 35.8495L411.39 39.0732L413.289 36.4667L423.49 22.4648L428.744 24.2656L413.997 42.7656L406.866 40.3251L406.511 16.6562L411.972 18.5253Z" stroke="black" stroke-width="2"/>
<path d="M431.827 37.2522C435.133 31.5622 441.689 29.6929 447.822 33.0139C450.979 34.7233 452.988 37.2465 453.823 40.052C454.606 42.6834 454.376 45.6274 452.997 48.4798L452.706 49.0491H452.705L452.198 49.9876L436.967 41.7434L435.886 41.1585L435.533 42.3362C435.05 43.9501 435.169 45.4457 435.801 46.7356C436.385 47.9292 437.371 48.872 438.562 49.5667L438.804 49.7024L438.806 49.7034C440.581 50.6619 442.382 51.2009 444.129 50.5686L449.123 53.2669C445.865 55.7089 441.428 56.1242 437.099 53.969L436.633 53.7278V53.7268C430.365 50.3327 428.384 43.6138 431.624 37.6302L431.827 37.2522ZM445.639 37.0481C444.391 36.3743 443.069 36.0146 441.756 36.1233C440.427 36.2334 439.191 36.8174 438.133 37.8821L437.19 38.8294L438.366 39.4661L447.697 44.5169L448.339 43.6575L449.147 43.8011C449.413 42.2981 449.201 40.9392 448.552 39.7698C447.909 38.6137 446.882 37.7194 445.639 37.0481Z" stroke="black" stroke-width="2"/>
<path d="M476.686 41.9633L472.078 48.0082L471.473 48.8031L472.267 49.4096L480.604 55.7768L477.795 59.4574L469.458 53.0902L468.662 52.4828L468.055 53.2797L463.176 59.6889C462.321 60.8097 461.891 61.9079 462.015 62.9789C462.124 63.9255 462.643 64.6567 463.279 65.2172L463.558 65.4467L463.562 65.4496C464.323 66.0316 465.271 66.4614 466.35 66.2963C467.35 66.1431 468.244 65.5118 469.056 64.5063L473.326 67.767C471.393 70.2205 469.314 71.3782 467.266 71.5951C465.28 71.8054 463.161 71.1516 461.042 69.644L460.619 69.3305H460.618C458.352 67.6003 457.019 65.6095 456.675 63.5063C456.333 61.4166 456.937 59.0312 458.915 56.4359L459.444 55.7416L459.434 55.7309L472.414 38.7016L476.686 41.9633Z" stroke="black" stroke-width="2"/>
</svg>
